<svg width="33" height="33" viewBox="0 0 33 33" fill="none" xmlns="http://www.w3.org/2000/svg">
<path d="M22.9455 17.9629C22.7309 19.0433 21.0758 20.2311 19.1371 20.4609C18.1333 20.5759 17.1448 20.6908 16.095 20.6448C14.3709 20.5606 13.0299 20.2311 13.0299 20.2311V20.7061C13.2751 22.4073 14.731 22.5069 16.118 22.5605C17.5126 22.5988 18.754 22.208 18.754 22.208L18.8153 23.4724C18.8153 23.4724 17.8344 23.9935 16.095 24.0931C15.1371 24.1467 13.9417 24.0701 12.5548 23.7099C9.55099 22.9054 9.02992 19.6947 8.9533 16.4303L8.94563 13.802C8.94563 10.4764 11.1142 9.5032 11.1142 9.5032C12.2253 8.99746 14.1103 8.76758 16.072 8.76758H16.118C18.0796 8.76758 19.9647 8.99746 21.0758 9.5032C21.0758 9.5032 23.2443 10.4764 23.2443 13.802C23.2443 13.802 23.275 16.2617 22.9455 17.9629ZM20.6926 14.0625C20.6926 13.235 20.4627 12.599 20.0413 12.1009C19.6122 11.6181 19.0451 11.3653 18.3325 11.3653C17.5203 11.3653 16.8996 11.6794 16.4781 12.3078L16.095 12.9821L15.7118 12.3078C15.2827 11.6794 14.6697 11.3653 13.8498 11.3653C13.1448 11.3653 12.5778 11.6181 12.141 12.1009C11.7195 12.599 11.4973 13.235 11.4973 14.0625V18.0931H13.1065V14.1775C13.1065 13.3652 13.4513 12.9361 14.1486 12.9361C14.9149 12.9361 15.2981 13.4342 15.2981 14.415V16.5529H16.8842V14.415C16.8842 13.4342 17.2674 12.9361 18.0413 12.9361C18.731 12.9361 19.0758 13.3652 19.0758 14.1775V18.0931H20.6926V14.0625Z" fill="white"/>
</svg>
