<svg width="38" height="39" viewBox="0 0 38 39" fill="none" xmlns="http://www.w3.org/2000/svg">
<path d="M27.0172 20.9742C26.7654 22.2426 24.8223 23.6369 22.5463 23.9068C21.3679 24.0417 20.2074 24.1767 18.975 24.1227C16.9509 24.0238 15.3766 23.6369 15.3766 23.6369V24.1947C15.6645 26.1918 17.3737 26.3087 19.002 26.3717C20.6392 26.4166 22.0965 25.9579 22.0965 25.9579L22.1685 27.4422C22.1685 27.4422 21.017 28.0539 18.975 28.1708C17.8505 28.2338 16.4471 28.1438 14.8189 27.721C11.2925 26.7765 10.6808 23.0072 10.5908 19.175L10.5819 16.0894C10.5819 12.1852 13.1277 11.0428 13.1277 11.0428C14.4321 10.449 16.645 10.1792 18.948 10.1792H19.002C21.3049 10.1792 23.5179 10.449 24.8223 11.0428C24.8223 11.0428 27.3681 12.1852 27.3681 16.0894C27.3681 16.0894 27.4041 18.9771 27.0172 20.9742ZM24.3725 16.3953C24.3725 15.4237 24.1026 14.6771 23.6078 14.0924C23.1041 13.5256 22.4384 13.2288 21.6017 13.2288C20.6482 13.2288 19.9195 13.5976 19.4248 14.3352L18.975 15.1269L18.5252 14.3352C18.0214 13.5976 17.3017 13.2288 16.3392 13.2288C15.5116 13.2288 14.8459 13.5256 14.3331 14.0924C13.8383 14.6771 13.5775 15.4237 13.5775 16.3953V21.1271H15.4666V16.5302C15.4666 15.5767 15.8714 15.0729 16.69 15.0729C17.5896 15.0729 18.0394 15.6576 18.0394 16.8091V19.3189H19.9015V16.8091C19.9015 15.6576 20.3513 15.0729 21.2599 15.0729C22.0695 15.0729 22.4743 15.5767 22.4743 16.5302V21.1271H24.3725V16.3953Z" fill="#C5C5CE"/>
</svg>
