<svg width="33" height="33" viewBox="0 0 33 33" fill="none" xmlns="http://www.w3.org/2000/svg">
<g clip-path="url(#clip0_3_625)">
<path d="M25.6703 13.5044L25.6565 13.4377L25.6433 13.3992C25.6358 13.3809 25.6295 13.3607 25.6203 13.3418C25.618 13.328 25.6088 13.3159 25.6048 13.3033L25.5777 13.2521L25.5548 13.2136L25.5209 13.1676L25.4858 13.1332L25.4398 13.0987L25.4048 13.0757L25.3588 13.0418L25.3249 13.0113L25.3134 12.9958L16.9186 7.37977C16.6526 7.20219 16.3089 7.20219 16.0434 7.37977L7.53485 13.0596L7.50554 13.0901L7.46703 13.1332L7.43887 13.1676L7.40036 13.2136C7.38485 13.2268 7.37738 13.2366 7.37738 13.2487L7.33887 13.2946L7.32335 13.3406C7.30784 13.3481 7.30784 13.3711 7.30037 13.3941L7.29289 13.4326C7.27853 13.4561 7.27853 13.4791 7.27853 13.5021V19.2469C7.27853 19.2808 7.28083 19.3158 7.286 19.3503L7.29347 19.3854C7.29749 19.4084 7.30094 19.4314 7.30899 19.4515L7.32048 19.49C7.32795 19.5107 7.33255 19.5308 7.34117 19.5475L7.35784 19.586C7.35784 19.5934 7.36933 19.6164 7.38082 19.6319L7.40381 19.6624C7.41531 19.6699 7.4268 19.6929 7.43829 19.7084L7.46128 19.7388L7.49174 19.7693C7.49921 19.7791 7.49921 19.7923 7.51473 19.7923L7.56071 19.8245L7.59117 19.8474L7.59864 19.8584L16.0049 25.475C16.1307 25.5669 16.2922 25.5997 16.4416 25.5997C16.5911 25.5997 16.7405 25.5537 16.8784 25.4618L25.4283 19.7865L25.468 19.7423L25.4933 19.7078L25.5237 19.6618L25.5467 19.6233L25.5697 19.5699L25.5818 19.5302L25.6048 19.471L25.6163 19.4365L25.6392 19.375V13.628C25.6392 13.5895 25.6392 13.555 25.6272 13.5205L25.6163 13.486L25.6502 13.4883L25.6703 13.5044ZM16.4824 18.317L13.6854 16.4475L16.4824 14.5762L19.2795 16.4458L16.4824 18.3153V18.317ZM15.6905 13.2027L12.263 15.494L9.49459 13.6429L15.6905 9.51251V13.2044V13.2027ZM10.84 16.4463L8.86127 17.7722V15.128L10.84 16.4504V16.4463ZM12.263 17.4044L15.6905 19.6957V23.3894L9.49459 19.2584L12.267 17.4061V17.4032L12.263 17.4044ZM17.2721 19.6952L20.7002 17.4118L23.4686 19.2664L17.2715 23.3968V19.7032L17.2721 19.6952ZM22.1226 16.4538L24.1019 15.136V17.7843L22.1226 16.4584V16.4538ZM20.7008 15.5038L17.2732 13.2119V9.51078L23.4686 13.6412L20.7008 15.494V15.5038Z" fill="white"/>
</g>
<defs>
<clipPath id="clip0_3_625">
<rect width="18.3906" height="18.3906" fill="white" transform="translate(7.27968 7.23486)"/>
</clipPath>
</defs>
</svg>
