<svg width="33" height="33" viewBox="0 0 33 33" fill="none" xmlns="http://www.w3.org/2000/svg">
<g clip-path="url(#clip0_3_638)">
<path d="M14.9561 18.8109L19.9229 16.2454L14.9561 13.649V18.8109ZM16.855 9.96436C20.7242 9.96436 23.2897 10.1489 23.2897 10.1489C23.649 10.1903 24.4391 10.1903 25.1367 10.9292C25.1367 10.9292 25.7009 11.4836 25.8651 12.7558C26.0601 14.2441 26.0496 15.7318 26.0496 15.7318V17.1275C26.0496 17.1275 26.0601 18.6158 25.8651 20.1035C25.7009 21.3659 25.1367 21.9301 25.1367 21.9301C24.4391 22.6585 23.6483 22.6585 23.2897 22.6998C23.2897 22.6998 20.7242 22.8949 16.855 22.8949C12.0728 22.8535 10.6048 22.7104 10.6048 22.7104C10.1943 22.6388 9.27082 22.6591 8.57263 21.9301C8.57263 21.9301 8.00844 21.3659 7.84424 20.1035C7.64916 18.6152 7.65967 17.1275 7.65967 17.1275V15.7318C7.65967 15.7318 7.64916 14.2435 7.84424 12.7558C8.00844 11.4836 8.57263 10.9292 8.57263 10.9292C9.27016 10.1903 10.061 10.1903 10.4196 10.1489C10.4196 10.1489 12.9851 9.96436 16.8543 9.96436H16.855Z" fill="white"/>
</g>
<defs>
<clipPath id="clip0_3_638">
<rect width="18.3906" height="18.3906" fill="white" transform="translate(7.65967 7.23486)"/>
</clipPath>
</defs>
</svg>
