<svg width="33" height="33" viewBox="0 0 33 33" fill="none" xmlns="http://www.w3.org/2000/svg">
<g clip-path="url(#clip0_3_620)">
<path d="M16.285 7.46249C11.2046 7.46249 7.08968 11.5797 7.08968 16.6578C7.08968 20.7215 9.72413 24.1675 13.377 25.3818C13.8367 25.4686 14.0051 25.1841 14.0051 24.9399C14.0051 24.7215 13.9976 24.1428 13.9936 23.3767C11.4356 23.9313 10.8965 22.1428 10.8965 22.1428C10.4781 21.0813 9.87355 20.798 9.87355 20.798C9.0408 20.2279 9.93792 20.2394 9.93792 20.2394C10.8615 20.3037 11.3465 21.1865 11.3465 21.1865C12.1666 22.5928 13.4988 22.1865 14.0247 21.9514C14.1074 21.3566 14.3442 20.9514 14.6068 20.7215C12.5649 20.4917 10.4184 19.7009 10.4184 16.1773C10.4184 15.1733 10.7747 14.3538 11.3649 13.7101C11.2615 13.4779 10.9511 12.5429 11.4454 11.2762C11.4454 11.2762 12.2155 11.0297 13.9741 12.2188C14.7097 12.0142 15.4913 11.913 16.2729 11.9084C17.0545 11.913 17.8361 12.0142 18.5717 12.2188C20.3188 11.0297 21.0889 11.2762 21.0889 11.2762C21.5832 12.5429 21.2729 13.4779 21.1809 13.7101C21.7671 14.3538 22.1234 15.1739 22.1234 16.1773C22.1234 19.7101 19.974 20.4876 17.9281 20.7135C18.2499 20.9893 18.5487 21.5531 18.5487 22.4146C18.5487 23.6451 18.5373 24.6336 18.5373 24.9324C18.5373 25.1738 18.6982 25.4611 19.1694 25.3692C22.8481 24.1629 25.4803 20.7146 25.4803 16.6572C25.4803 11.5791 21.3631 7.46249 16.285 7.46249Z" fill="white"/>
</g>
<defs>
<clipPath id="clip0_3_620">
<rect width="18.3906" height="18.3906" fill="white" transform="translate(7.08968 7.23486)"/>
</clipPath>
</defs>
</svg>
