<svg width="12" height="13" viewBox="0 0 12 13" fill="none" xmlns="http://www.w3.org/2000/svg">
<mask id="mask0_1_36" style="mask-type:alpha" maskUnits="userSpaceOnUse" x="0" y="0" width="12" height="13">
<g clip-path="url(#clip0_1_36)">
<path d="M3.00001 9.40018V3.11218C2.98461 2.98999 2.99551 2.86592 3.03198 2.74829C3.06845 2.63066 3.12964 2.52218 3.21146 2.43014C3.29328 2.33809 3.39383 2.2646 3.50638 2.21459C3.61892 2.16458 3.74085 2.13921 3.86401 2.14018C4.1001 2.1301 4.3333 2.19523 4.53001 2.32618L9.64801 5.32618C10.104 5.59018 10.35 5.80618 10.35 6.23218C10.35 6.65818 10.104 6.87418 9.64801 7.13818L4.53001 10.1382C4.3333 10.2691 4.1001 10.3343 3.86401 10.3242C3.74479 10.3263 3.62646 10.3033 3.51666 10.2568C3.40687 10.2103 3.30806 10.1413 3.22662 10.0542C3.14519 9.96713 3.08294 9.86391 3.0439 9.75125C3.00486 9.63858 2.98991 9.51898 3.00001 9.40018Z" fill="black"/>
</g>
</mask>
<g mask="url(#mask0_1_36)">
<rect y="0.25" width="12" height="12" fill="black"/>
</g>
<defs>
<clipPath id="clip0_1_36">
<rect width="12" height="12" fill="white" transform="translate(0 0.25)"/>
</clipPath>
</defs>
</svg>
