<svg width="59" height="15" viewBox="0 0 59 15" fill="none" xmlns="http://www.w3.org/2000/svg">
<path d="M24.7387 14.0117V4.65572H24.6778L20.8458 14.0117H19.384L15.5398 4.65572H15.4789V14.0117H13.6812V1.29926H15.9627L20.0766 11.4295H20.148L24.2532 1.29926H26.5433V14.0117H24.7387ZM36.4818 14.0117H34.6581V12.444H34.6146C34.1029 13.5541 33.1615 14.1787 31.7432 14.1787C29.7262 14.1787 28.4924 12.8668 28.4924 10.7422V4.74272H30.3962V10.3716C30.3962 11.781 31.0662 12.5379 32.3783 12.5379C33.7531 12.5379 34.5815 11.5861 34.5815 10.1419V4.74272H36.4853L36.4818 14.0117ZM41.6973 4.57568C43.8552 4.57568 45.2561 5.77454 45.3188 7.48322H43.5298C43.4236 6.58538 42.7641 6.02162 41.6973 6.02162C40.6671 6.02162 39.9797 6.52448 39.9797 7.26398C39.9797 7.84514 40.4026 8.24186 41.4067 8.47154L42.9137 8.81432C44.8089 9.25454 45.5311 9.99404 45.5311 11.3338C45.5311 13.0251 43.9544 14.1874 41.7687 14.1874C39.4507 14.1874 38.0585 13.0512 37.8827 11.2886H39.7691C39.9449 12.2578 40.6062 12.7328 41.7687 12.7328C42.9137 12.7328 43.6185 12.2578 43.6185 11.4991C43.6185 10.9006 43.2757 10.5474 42.2612 10.3177L40.7541 9.9662C38.9913 9.56078 38.1194 8.71514 38.1194 7.36664C38.1194 5.7119 39.5655 4.57568 41.6973 4.57568ZM46.8606 2.30324C46.8484 1.6925 47.3339 1.1879 47.9448 1.17572C48.5556 1.16354 49.0603 1.649 49.0724 2.25974C49.0846 2.87048 48.5991 3.37508 47.9883 3.38726C47.9796 3.38726 47.9709 3.38726 47.9622 3.38726C47.3583 3.39074 46.8658 2.90702 46.8606 2.30324ZM47.0103 4.74272H48.9141V14.01H47.0103V4.74272ZM56.947 7.93214C56.7539 6.94556 56.0125 6.16082 54.7717 6.16082C53.2995 6.16082 52.3319 7.38578 52.3319 9.37634C52.3319 11.4121 53.3099 12.5919 54.7909 12.5919C55.962 12.5919 56.7295 11.9481 56.9488 10.8745H58.7812C58.5776 12.8476 57.001 14.1874 54.7717 14.1874C52.1196 14.1874 50.3933 12.3726 50.3933 9.37808C50.3933 6.43574 52.1196 4.57742 54.7543 4.57742C57.1419 4.57742 58.595 6.11036 58.7638 7.93388L56.947 7.93214ZM7.63739 2.53988C8.1525 1.92392 8.40832 1.13222 8.35089 0.330078C7.56082 0.404898 6.82992 0.782478 6.31307 1.38452C5.87105 1.89434 5.48124 2.72606 5.58217 3.50906C6.36354 3.57692 7.1449 3.11756 7.63739 2.53988ZM8.34045 3.66044C7.20581 3.59258 6.23998 4.30424 5.69877 4.30424C5.15581 4.30424 4.32572 3.6935 3.4295 3.7109C2.24092 3.74048 1.15849 4.3982 0.58421 5.43872C-0.635697 7.54064 0.262266 10.6587 1.44911 12.3691C2.02513 13.2165 2.71948 14.1492 3.63311 14.1144C4.498 14.0813 4.83561 13.5541 5.88671 13.5541C6.93608 13.5541 7.24062 14.1144 8.15598 14.097C9.10441 14.0796 9.69783 13.2496 10.2739 12.4022C10.6828 11.8019 11.0013 11.1459 11.2223 10.4534C11.2049 10.436 9.39329 9.74174 9.37589 7.65722C9.35849 5.912 10.7994 5.08202 10.8655 5.02982C10.0528 3.83096 8.78247 3.69524 8.34045 3.66044Z" fill="black"/>
</svg>
