<svg width="364" height="250" viewBox="0 0 364 250" fill="none" xmlns="http://www.w3.org/2000/svg">
<path d="M346.037 193.114L342.991 158.296C342.947 157.736 342.908 157.176 342.859 156.617C342.635 153.885 342.396 151.155 342.157 148.424L335.717 74.8087C335.478 72.0782 335.239 69.3476 334.985 66.6184C334.769 64.3184 334.543 62.0243 334.277 59.7287C333.704 54.7337 332.967 49.7027 331.64 44.8289C330.296 39.8761 328.409 35.328 325.683 30.9589C323.004 26.6713 319.659 22.8241 315.788 19.5763C311.917 16.3285 307.547 13.6978 302.855 11.8096C298.083 9.88305 293.277 8.81969 288.17 8.35597C283.135 7.90112 278.057 8.04362 273.033 8.34734C270.726 8.48879 268.427 8.65975 266.125 8.84612C263.398 9.06962 260.667 9.30853 257.936 9.54744L72.6994 25.7535C69.9687 25.9924 67.2379 26.2314 64.5085 26.4852C62.2084 26.7016 59.9142 26.9274 57.6184 27.1937C52.618 27.767 47.5916 28.5035 42.7125 29.8308C37.7644 31.1741 33.2155 33.056 28.8512 35.7818C24.5632 38.4608 20.7157 41.8054 17.4627 45.6764C14.2146 49.5471 11.5887 53.9166 9.69488 58.6043C7.76811 63.3754 6.70007 68.1871 6.2367 73.298C5.78133 78.3277 5.92876 83.4052 6.23245 88.4289C6.37388 90.7354 6.54482 93.0343 6.73118 95.3369C6.9551 98.0687 7.19399 100.799 7.43288 103.53L13.8734 177.145C14.1123 179.876 14.3512 182.606 14.6051 185.336C14.8214 187.636 15.0472 189.93 15.3135 192.225C15.8863 197.22 16.6232 202.251 17.9451 207.126C19.2889 212.078 21.1758 216.626 23.9023 220.996C26.5813 225.283 29.9261 229.13 33.797 232.378C37.6728 235.626 42.038 238.257 46.7306 240.145C51.502 242.071 56.3086 243.135 61.4148 243.598C66.4498 244.053 71.5282 243.911 76.5521 243.607C78.8588 243.466 81.1578 243.295 83.4606 243.108C86.1926 242.884 88.9234 242.646 91.6541 242.407L276.896 226.2C279.626 225.961 282.357 225.722 285.087 225.468C287.387 225.252 289.681 225.026 291.977 224.76C296.977 224.187 302.004 223.45 306.883 222.123C311.831 220.779 316.38 218.898 320.744 216.172C323.935 214.177 326.882 211.817 329.516 209.142C329.582 209.207 329.638 209.272 329.704 209.337C346.395 225.381 362.722 217.544 362.722 217.544C353.989 216.337 347.086 205.105 346.037 193.119L346.037 193.114Z" fill="#007AFF"/>
</svg>
