<svg width="17" height="17" viewBox="0 0 17 17" fill="none" xmlns="http://www.w3.org/2000/svg">
<g clip-path="url(#clip0_3_644)">
<path fill-rule="evenodd" clip-rule="evenodd" d="M8.88664 3.74235L5.0022 3.71924L6.90975 15.7695H11.5569L13.4644 3.71924L8.88664 3.74235Z" fill="#FF9100"/>
<path fill-rule="evenodd" clip-rule="evenodd" d="M8.88664 3.74235L5.0022 3.71924L6.90975 15.7695H10.5862L12.4933 3.71924L8.88664 3.74235Z" fill="#FFDD00"/>
<path fill-rule="evenodd" clip-rule="evenodd" d="M3.89286 3.71902H13.9151V2.60791H3.89331L3.89286 3.71902Z" fill="white"/>
<path fill-rule="evenodd" clip-rule="evenodd" d="M3.89286 3.71902H13.9151V2.60791H3.89331L3.89286 3.71902Z" stroke="black" stroke-width="0.52"/>
<path fill-rule="evenodd" clip-rule="evenodd" d="M11.9733 0.802246H5.76575L5.03687 2.46891H12.7018L11.9733 0.802246Z" fill="white"/>
<path fill-rule="evenodd" clip-rule="evenodd" d="M11.9733 0.802246H5.76575L5.03687 2.46891H12.7018L11.9733 0.802246Z" stroke="#050505" stroke-width="0.52"/>
<path fill-rule="evenodd" clip-rule="evenodd" d="M8.88664 3.74235L4.30886 3.71924L6.21642 15.7695H11.5569L13.4644 3.71924L8.88664 3.74235Z" stroke="black" stroke-width="0.52"/>
<path fill-rule="evenodd" clip-rule="evenodd" d="M13.6031 7.12207H4.13597L4.9902 11.9145L8.86931 11.8727L12.7484 11.9145L13.6031 7.12207Z" fill="white"/>
<path fill-rule="evenodd" clip-rule="evenodd" d="M13.6031 7.12207H4.13597L4.9902 11.9145L8.86931 11.8727L12.7484 11.9145L13.6031 7.12207Z" stroke="black" stroke-width="0.52"/>
</g>
<defs>
<clipPath id="clip0_3_644">
<rect width="16" height="16" fill="white" transform="translate(0.959976 0.339844)"/>
</clipPath>
</defs>
</svg>
