<svg width="68" height="15" viewBox="0 0 68 15" fill="none" xmlns="http://www.w3.org/2000/svg">
<path d="M20.7098 10.541H15.8198L14.6469 14.0096H12.5749L17.2069 1.17843H19.3578L23.9898 14.0096H21.8828L20.7098 10.541ZM16.3272 8.94105H20.2024L18.2903 3.31227H18.2376L16.3272 8.94105ZM25.0819 4.65405H26.9133V6.24521H26.9572C27.268 5.15106 28.1038 4.50301 29.2065 4.50301C29.4821 4.50301 29.7227 4.54691 29.8649 4.57501V6.36288C29.7139 6.30141 29.3768 6.25575 29.0028 6.25575C27.7667 6.25575 27.0029 7.08294 27.0029 8.40715V14.0096H25.0819V4.65405ZM36.8884 7.87325C36.6935 6.87746 35.9455 6.08539 34.6935 6.08539C33.2081 6.08539 32.2318 7.32179 32.2318 9.33094C32.2318 11.3858 33.2186 12.5765 34.7129 12.5765C35.8945 12.5765 36.6689 11.9267 36.8901 10.8431H38.739C38.5336 12.8347 36.9428 14.187 34.6935 14.187C32.0176 14.187 30.2758 12.3552 30.2758 9.3327C30.2758 6.36288 32.0176 4.4872 34.676 4.4872C37.085 4.4872 38.5512 6.03446 38.7215 7.87501L36.8884 7.87325ZM39.7258 11.3506C39.7258 9.7138 40.9795 8.70923 43.2024 8.58453L45.7625 8.4335V7.71343C45.7625 6.67373 45.0601 6.05026 43.8872 6.05026C42.7758 6.05026 42.0822 6.58416 41.9136 7.42014H40.0998C40.2069 5.73063 41.6468 4.48545 43.9575 4.48545C46.2243 4.48545 47.6729 5.68496 47.6729 7.5624V14.0096H45.8327V12.4711H45.7888C45.2463 13.5108 44.0646 14.1694 42.8372 14.1694C41.0059 14.1694 39.7258 13.0314 39.7258 11.3506ZM45.7625 10.5059V9.76825L43.4606 9.9105C42.314 9.99129 41.6643 10.4971 41.6643 11.2979C41.6643 12.1164 42.3403 12.6503 43.371 12.6503C44.7125 12.6485 45.7625 11.7247 45.7625 10.5059ZM49.0231 9.3327C49.0231 6.38044 50.5876 4.50476 52.9352 4.50476C54.2767 4.50476 55.3442 5.18092 55.8692 6.21184H55.9044V1.17843H57.834V14.0096H55.9658V12.4184H55.9307C55.3794 13.4845 54.3135 14.1694 52.9528 14.1694C50.5876 14.1694 49.0231 12.2832 49.0231 9.3327ZM50.9879 9.3327C50.9879 11.3067 51.9396 12.5431 53.4602 12.5431C54.9351 12.5431 55.9219 11.2892 55.9219 9.3327C55.9219 7.3938 54.9351 6.12227 53.4602 6.12227C51.9396 6.12227 50.9879 7.36745 50.9879 9.3327ZM67.6528 11.2611C67.3859 12.9681 65.7688 14.187 63.6266 14.187C60.8805 14.187 59.2177 12.3289 59.2177 9.3766C59.2177 6.44191 60.9068 4.48545 63.5476 4.48545C66.1428 4.48545 67.7617 6.31721 67.7617 9.15356V9.81215H61.1561V9.92806C61.1561 11.5544 62.1342 12.6309 63.6723 12.6309C64.7662 12.6309 65.5739 12.0795 65.832 11.2611C65.8302 11.2611 67.6528 11.2611 67.6528 11.2611ZM61.1632 8.46862H65.839C65.7951 7.03728 64.8873 6.0327 63.5459 6.0327C62.2044 6.0327 61.2615 7.05484 61.1632 8.46862ZM7.727 2.43063C8.20635 1.83 8.53294 1.02388 8.4469 0.200195C7.74456 0.23532 6.8877 0.663845 6.39079 1.26448C5.9448 1.77906 5.55149 2.61855 5.65333 3.40886C6.44171 3.47736 7.23009 3.01371 7.727 2.43063ZM8.43812 3.56166C7.2933 3.49316 6.3188 4.21147 5.77273 4.21147C5.2249 4.21147 4.38735 3.59503 3.48308 3.61259C2.3049 3.63015 1.21099 4.29577 0.612245 5.35655C-0.618615 7.4781 0.287411 10.6253 1.48491 12.3517C2.0661 13.207 2.76669 14.1483 3.68852 14.1132C4.56118 14.0798 4.90182 13.5477 5.96236 13.5477C7.02114 13.5477 7.32842 14.1132 8.252 14.0956C9.20895 14.0781 9.8077 13.2404 10.3889 12.3851C11.0561 11.4103 11.3283 10.469 11.3458 10.4181C11.3283 10.4005 9.50042 9.69975 9.48286 7.59576C9.4653 5.83425 10.9192 4.99651 10.9859 4.94383C10.1641 3.73377 8.88236 3.59678 8.43812 3.56166Z" fill="white"/>
</svg>
