<svg width="78" height="15" viewBox="0 0 78 15" fill="none" xmlns="http://www.w3.org/2000/svg">
<path d="M13.667 14.0004V1.31484H21.5881V3.01123H15.636V7.02909H21.0863V8.69075H15.636V14.0004H13.667ZM22.9147 2.30802C22.9147 1.70204 23.4061 1.21761 24.0138 1.21761C24.6198 1.21761 25.1129 1.70204 25.1129 2.30802C25.1129 2.90532 24.6215 3.39843 24.0138 3.39843C23.4061 3.39843 22.9147 2.90705 22.9147 2.30802ZM23.064 4.75277H24.9636V14.0004H23.064V4.75277ZM29.6551 2.56326V4.75277H31.4123V6.25642H29.6551V11.3543C29.6551 12.1547 30.0058 12.5141 30.7802 12.5141C30.973 12.5141 31.282 12.4968 31.4036 12.4707V13.9744C31.1935 14.0265 30.7716 14.0629 30.3479 14.0629C28.4761 14.0629 27.7451 13.351 27.7451 11.5661V6.25642H26.3995V4.75277H27.7451V2.56326H29.6551ZM33.0062 4.75277H34.8172V6.29983H34.8606C35.3624 5.24415 36.3469 4.59476 37.7707 4.59476C39.8109 4.59476 40.9794 5.89527 40.9794 8.01358V14.0004H39.0712V8.38342C39.0712 6.99436 38.4201 6.23038 37.1022 6.23038C35.7652 6.23038 34.904 7.18015 34.904 8.61262V14.0022H33.0045V4.75277H33.0062ZM50.5587 11.2831C50.2948 12.9708 48.6956 14.1758 46.5773 14.1758C43.8617 14.1758 42.2174 12.3388 42.2174 9.42001C42.2174 6.51861 43.8878 4.58434 46.4992 4.58434C49.0655 4.58434 50.6664 6.39533 50.6664 9.19949V9.85062H44.1343V9.96521C44.1343 11.5731 45.1014 12.6374 46.6225 12.6374C47.7042 12.6374 48.5046 12.0922 48.7581 11.2831H50.5587ZM44.1413 8.52406H48.7651C48.7217 7.10896 47.824 6.11578 46.4975 6.11578C45.1692 6.11578 44.2368 7.12632 44.1413 8.52406ZM55.5159 4.58608C57.669 4.58608 59.0667 5.78241 59.1292 7.48748H57.3443C57.2384 6.59153 56.5803 6.02896 55.5159 6.02896C54.488 6.02896 53.8022 6.53076 53.8022 7.2687C53.8022 7.84863 54.2241 8.24452 55.226 8.47371L56.7296 8.81577C58.6205 9.25506 59.341 9.99299 59.341 11.33C59.341 13.0177 57.7679 14.1775 55.5871 14.1775C53.2743 14.1775 51.8853 13.0437 51.7099 11.2848H53.5903C53.7657 12.252 54.4255 12.726 55.5854 12.726C56.7279 12.726 57.4311 12.252 57.4311 11.4949C57.4311 10.8976 57.089 10.5451 56.0768 10.316L54.5731 9.96521C52.8142 9.56065 51.9443 8.7168 51.9443 7.37114C51.9478 5.7199 53.3889 4.58608 55.5159 4.58608ZM64.1038 4.58608C66.2568 4.58608 67.6546 5.78241 67.7171 7.48748H65.9321C65.8262 6.59153 65.1682 6.02896 64.1038 6.02896C63.0759 6.02896 62.39 6.53076 62.39 7.2687C62.39 7.84863 62.812 8.24452 63.8138 8.47371L65.3175 8.81577C67.2083 9.25506 67.9289 9.99299 67.9289 11.33C67.9289 13.0177 66.3558 14.1775 64.175 14.1775C61.8622 14.1775 60.4731 13.0437 60.2978 11.2848H62.1782C62.3536 12.252 63.0134 12.726 64.1732 12.726C65.3157 12.726 66.019 12.252 66.019 11.4949C66.019 10.8976 65.6769 10.5451 64.6646 10.316L63.161 9.96521C61.4021 9.56065 60.5322 8.7168 60.5322 7.37114C60.5339 5.7199 61.9768 4.58608 64.1038 4.58608ZM74.3464 14.0126H72.6153V10.2448H69.028V8.53101H72.6153V4.76492H74.3464V8.53101H77.9423V10.2448H74.3464V14.0126ZM7.63676 2.55458C8.11773 1.97291 8.44068 1.16378 8.35213 0.359863C7.66107 0.387644 6.82416 0.819989 6.32757 1.40166C5.88308 1.91561 5.4924 2.74036 5.59832 3.52866C6.36925 3.58769 7.15754 3.13625 7.63676 2.55458ZM8.33477 3.68145C7.20268 3.59811 6.24249 4.31348 5.70771 4.31348C5.16424 4.31348 4.32559 3.69882 3.43833 3.71618C2.27152 3.73354 1.19673 4.39508 0.594229 5.44035C-0.617726 7.54304 0.285163 10.6597 1.46586 12.3666C2.04406 13.2 2.73165 14.1411 3.63627 14.1063C4.50617 14.0716 4.83607 13.5438 5.88828 13.5438C6.9405 13.5438 7.23741 14.1063 8.15766 14.0907C9.09528 14.0734 9.6891 13.2399 10.2621 12.4013C10.9254 11.4341 11.198 10.4965 11.2136 10.4462C11.1928 10.4375 9.38698 9.7447 9.36962 7.66458C9.35399 5.92478 10.7899 5.08961 10.8542 5.04794C10.0381 3.8464 8.77927 3.71444 8.33477 3.68145Z" fill="white"/>
</svg>
