<svg width="322" height="142" viewBox="0 0 322 142" fill="none" xmlns="http://www.w3.org/2000/svg">
<path d="M303.319 119.697L305.107 94.1274C305.136 93.7175 305.175 93.3083 305.204 92.8934C305.354 90.8895 305.494 88.8849 305.634 86.8803L306.429 75.5126C306.569 73.508 306.709 71.5034 306.84 69.4981C306.948 67.8078 307.046 66.1167 307.119 64.4239C307.276 60.7377 307.321 57.0134 306.92 53.3284C306.514 49.5876 305.674 46.0728 304.199 42.5989C302.75 39.1871 300.771 36.0146 298.339 33.2173C295.907 30.42 293.041 28.0143 289.864 26.1043C286.629 24.16 283.27 22.8401 279.621 21.9169C276.028 21.0075 272.333 20.5331 268.656 20.1755C266.969 20.0124 265.28 19.8742 263.591 19.746C261.592 19.6012 259.582 19.4607 257.577 19.3205L61.9741 5.64257C59.9694 5.50238 57.9646 5.3622 55.9591 5.23201C54.2686 5.12384 52.5774 5.02568 50.8844 4.9525C47.1979 4.79518 43.4682 4.75039 39.7829 5.15075C36.0468 5.55761 32.5316 6.39687 29.0575 7.87194C25.6454 9.32122 22.4726 11.2996 19.6747 13.7362C16.8772 16.1679 14.4713 19.0338 12.5661 22.211C10.6218 25.4458 9.29639 28.8092 8.37814 32.4573C7.46873 36.0507 6.99438 39.745 6.63711 43.4172C6.47397 45.1037 6.33582 46.792 6.20766 48.4809C6.05784 50.4798 5.91767 52.4844 5.77714 54.494L4.98224 65.8617C4.84241 67.8613 4.70224 69.8659 4.57206 71.8712C4.46391 73.5615 4.36575 75.2526 4.2926 76.9454C4.13531 80.6316 4.09091 84.3559 4.49135 88.0409C4.89795 91.7817 5.74233 95.2969 7.21258 98.7704C8.66204 102.182 10.6407 105.355 13.0725 108.152C15.5044 110.949 18.3706 113.355 21.5478 115.265C24.7829 117.209 28.142 118.529 31.7901 119.452C35.3839 120.362 39.0785 120.836 42.7561 121.194C44.4427 121.357 46.1311 121.495 47.8202 121.623C49.8243 121.773 51.8291 121.914 53.8339 122.054L249.437 135.732C251.442 135.872 253.447 136.012 255.452 136.142C257.143 136.25 258.834 136.349 260.527 136.422C264.213 136.579 267.943 136.624 271.628 136.224C275.364 135.817 278.88 134.977 282.354 133.502C284.896 132.424 287.298 131.05 289.517 129.417C289.559 129.47 289.59 129.527 289.631 129.581C299.878 143.117 312.608 139.31 312.608 139.31C306.42 137.431 302.708 128.506 303.324 119.703L303.319 119.697Z" fill="#007AFF"/>
</svg>
