<svg width="17" height="17" viewBox="0 0 17 17" fill="none" xmlns="http://www.w3.org/2000/svg">
<g clip-path="url(#clip0_3_276)">
<path fill-rule="evenodd" clip-rule="evenodd" d="M8.28563 3.45231L4.40118 3.4292L6.30874 15.4794H10.9559L12.8634 3.4292L8.28563 3.45231Z" fill="#FF9100"/>
<path fill-rule="evenodd" clip-rule="evenodd" d="M8.28563 3.45231L4.40118 3.4292L6.30874 15.4794H9.98518L11.8923 3.4292L8.28563 3.45231Z" fill="#FFDD00"/>
<path fill-rule="evenodd" clip-rule="evenodd" d="M3.29187 3.42898H13.3141V2.31787H3.29231L3.29187 3.42898Z" fill="white"/>
<path fill-rule="evenodd" clip-rule="evenodd" d="M3.29187 3.42898H13.3141V2.31787H3.29231L3.29187 3.42898Z" stroke="black" stroke-width="0.52"/>
<path fill-rule="evenodd" clip-rule="evenodd" d="M11.3723 0.512207H5.16474L4.43585 2.17887H12.1007L11.3723 0.512207Z" fill="white"/>
<path fill-rule="evenodd" clip-rule="evenodd" d="M11.3724 0.512207H5.1648L4.43591 2.17887H12.1008L11.3724 0.512207Z" stroke="#050505" stroke-width="0.52"/>
<path fill-rule="evenodd" clip-rule="evenodd" d="M8.28566 3.45231L3.70789 3.4292L5.61544 15.4794H10.9559L12.8634 3.4292L8.28566 3.45231Z" stroke="black" stroke-width="0.52"/>
<path fill-rule="evenodd" clip-rule="evenodd" d="M13.0021 6.83228H3.53497L4.3892 11.6247L8.26831 11.5829L12.1474 11.6247L13.0021 6.83228Z" fill="white"/>
<path fill-rule="evenodd" clip-rule="evenodd" d="M13.0021 6.83228H3.53497L4.3892 11.6247L8.26831 11.5829L12.1474 11.6247L13.0021 6.83228Z" stroke="black" stroke-width="0.52"/>
</g>
<defs>
<clipPath id="clip0_3_276">
<rect width="16" height="16" fill="white" transform="translate(0.359009 0.0500488)"/>
</clipPath>
</defs>
</svg>
